<?xml version="1.0" encoding="UTF-8"?>
<svg xmlns="http://www.w3.org/2000/svg" xmlns:xlink="http://www.w3.org/1999/xlink" width="200pt" height="200pt" viewBox="0 0 200 200" version="1.1">
<g id="surface1">
<rect x="0" y="0" width="200" height="200" style="fill:rgb(100%,100%,100%);fill-opacity:1;stroke:none;"/>
<path style=" stroke:none;fill-rule:evenodd;fill:rgb(60.351563%,60.351563%,59.959412%);fill-opacity:1;" d="M 66.753906 105.882813 L 66.753906 94.664063 L 69.101563 94.664063 L 69.101563 92.320313 L 59.761719 92.320313 L 59.761719 94.664063 L 63.238281 94.664063 L 63.238281 100.007813 L 53.289063 100.007813 L 53.289063 96.402344 L 57.417969 96.402344 L 57.417969 94.101563 L 45.6875 94.101563 L 45.6875 96.402344 L 49.207031 96.402344 L 49.207031 105.847656 L 45.742188 105.847656 L 45.742188 108.175781 L 56.835938 108.175781 L 56.835938 105.847656 L 53.289063 105.847656 L 53.289063 102.3125 L 63.238281 102.3125 L 63.238281 105.882813 L 59.839844 105.882813 L 59.839844 108.125 L 69.113281 108.125 L 69.113281 105.882813 L 66.753906 105.882813 "/>
<path style=" stroke:none;fill-rule:evenodd;fill:rgb(60.351563%,60.351563%,59.959412%);fill-opacity:1;" d="M 36.453125 104.007813 L 37.601563 101.730469 L 38.742188 104.007813 Z M 44.933594 109.390625 L 39.929688 99.402344 L 42.734375 99.402344 L 42.734375 97.664063 L 34.003906 97.664063 L 34.003906 99.402344 L 35.28125 99.402344 L 30.839844 108.175781 L 28.050781 108.175781 L 28.050781 110.519531 L 36.261719 110.519531 L 36.261719 108.175781 L 34.339844 108.175781 L 35.527344 105.832031 L 39.65625 105.832031 L 41.4375 109.390625 L 38.695313 109.390625 L 38.695313 111.691406 L 47.425781 111.691406 L 47.425781 109.390625 L 44.933594 109.390625 "/>
<path style=" stroke:none;fill-rule:evenodd;fill:rgb(60.351563%,60.351563%,59.959412%);fill-opacity:1;" d="M 31.542969 95.808594 L 36.375 95.808594 L 36.375 93.59375 L 22.277344 93.59375 L 22.277344 95.808594 L 27.085938 95.808594 L 20.433594 101.652344 L 13.839844 93.003906 L 18.734375 93.003906 L 18.734375 90.570313 L 2.277344 90.570313 L 2.277344 93.003906 L 7.59375 93.003906 L 16.449219 104.714844 L 16.449219 110.566406 L 11.0625 110.566406 L 11.0625 112.855469 L 27.445313 112.855469 L 27.445313 110.566406 L 22.277344 110.566406 L 22.277344 103.960938 L 31.542969 95.808594 "/>
<path style=" stroke:none;fill-rule:evenodd;fill:rgb(60.351563%,60.351563%,59.959412%);fill-opacity:1;" d="M 79.847656 106.542969 C 76.421875 106.828125 73.46875 104.90625 73.25 102.257813 C 73.035156 99.609375 75.636719 97.230469 79.0625 96.953125 C 82.488281 96.671875 85.441406 98.589844 85.65625 101.238281 C 85.875 103.890625 83.273438 106.261719 79.847656 106.542969 Z M 88.539063 101.003906 C 88.195313 96.859375 83.574219 93.855469 78.210938 94.296875 C 72.847656 94.734375 68.777344 98.453125 69.117188 102.601563 C 69.460938 106.742188 74.082031 109.746094 79.445313 109.308594 C 84.804688 108.863281 88.878906 105.148438 88.539063 101.003906 "/>
<path style=" stroke:none;fill-rule:evenodd;fill:rgb(60.351563%,60.351563%,59.959412%);fill-opacity:1;" d="M 102.289063 105.363281 C 98.394531 105.6875 95.035156 103.46875 94.789063 100.402344 C 94.542969 97.335938 97.5 94.589844 101.394531 94.261719 C 105.289063 93.9375 108.648438 96.160156 108.894531 99.226563 C 109.140625 102.289063 106.183594 105.035156 102.289063 105.363281 Z M 112.328125 99.007813 C 111.9375 94.53125 106.644531 91.289063 100.511719 91.765625 C 94.371094 92.242188 89.714844 96.253906 90.101563 100.726563 C 90.492188 105.203125 95.785156 108.441406 101.921875 107.964844 C 108.058594 107.488281 112.714844 103.480469 112.328125 99.007813 "/>
<path style=" stroke:none;fill-rule:evenodd;fill:rgb(60.351563%,60.351563%,59.959412%);fill-opacity:1;" d="M 114.796875 88.824219 L 114.914063 104.015625 L 117.835938 104.074219 L 121.28125 89.40625 L 114.796875 88.824219 "/>
<path style=" stroke:none;fill-rule:evenodd;fill:rgb(60.351563%,60.351563%,59.959412%);fill-opacity:1;" d="M 114.269531 109.390625 L 117.71875 109.390625 L 117.71875 105.886719 L 114.269531 105.886719 Z M 114.269531 109.390625 "/>
<path style=" stroke:none;fill-rule:evenodd;fill:rgb(96.09375%,7.446289%,21.166992%);fill-opacity:1;" d="M 65.851563 104.75 L 65.851563 93.535156 L 68.199219 93.535156 L 68.199219 91.191406 L 58.859375 91.191406 L 58.859375 93.535156 L 62.332031 93.535156 L 62.332031 98.878906 L 52.386719 98.878906 L 52.386719 95.273438 L 56.511719 95.273438 L 56.511719 92.972656 L 44.785156 92.972656 L 44.785156 95.273438 L 48.300781 95.273438 L 48.300781 104.71875 L 44.835938 104.71875 L 44.835938 107.042969 L 55.929688 107.042969 L 55.929688 104.71875 L 52.386719 104.71875 L 52.386719 101.183594 L 62.332031 101.183594 L 62.332031 104.75 L 58.933594 104.75 L 58.933594 106.992188 L 68.207031 106.992188 L 68.207031 104.75 L 65.851563 104.75 "/>
<path style=" stroke:none;fill-rule:evenodd;fill:rgb(96.09375%,7.446289%,21.166992%);fill-opacity:1;" d="M 35.546875 102.875 L 36.699219 100.601563 L 37.835938 102.875 Z M 44.027344 108.261719 L 39.027344 98.269531 L 41.828125 98.269531 L 41.828125 96.53125 L 33.097656 96.53125 L 33.097656 98.269531 L 34.375 98.269531 L 29.9375 107.042969 L 27.148438 107.042969 L 27.148438 109.390625 L 35.355469 109.390625 L 35.355469 107.042969 L 33.4375 107.042969 L 34.621094 104.699219 L 38.75 104.699219 L 40.535156 108.261719 L 37.789063 108.261719 L 37.789063 110.5625 L 46.519531 110.5625 L 46.519531 108.261719 L 44.027344 108.261719 "/>
<path style=" stroke:none;fill-rule:evenodd;fill:rgb(96.09375%,7.446289%,21.166992%);fill-opacity:1;" d="M 30.640625 94.675781 L 35.46875 94.675781 L 35.46875 92.464844 L 21.375 92.464844 L 21.375 94.675781 L 26.179688 94.675781 L 19.527344 100.519531 L 12.9375 91.871094 L 17.832031 91.871094 L 17.832031 89.4375 L 1.375 89.4375 L 1.375 91.871094 L 6.691406 91.871094 L 15.542969 103.585938 L 15.542969 109.4375 L 10.15625 109.4375 L 10.15625 111.726563 L 26.539063 111.726563 L 26.539063 109.4375 L 21.375 109.4375 L 21.375 102.828125 L 30.640625 94.675781 "/>
<path style=" stroke:none;fill-rule:evenodd;fill:rgb(96.09375%,7.446289%,21.166992%);fill-opacity:1;" d="M 78.945313 105.414063 C 75.519531 105.695313 72.5625 103.773438 72.347656 101.128906 C 72.128906 98.476563 74.730469 96.101563 78.15625 95.820313 C 81.582031 95.539063 84.535156 97.460938 84.753906 100.105469 C 84.972656 102.757813 82.371094 105.132813 78.945313 105.414063 Z M 87.632813 99.871094 C 87.292969 95.726563 82.667969 92.722656 77.304688 93.164063 C 71.945313 93.605469 67.871094 97.320313 68.214844 101.46875 C 68.554688 105.613281 73.175781 108.613281 78.539063 108.175781 C 83.902344 107.734375 87.972656 104.019531 87.632813 99.871094 "/>
<path style=" stroke:none;fill-rule:evenodd;fill:rgb(96.09375%,7.446289%,21.166992%);fill-opacity:1;" d="M 101.386719 104.230469 C 97.488281 104.558594 94.132813 102.339844 93.882813 99.273438 C 93.636719 96.207031 96.59375 93.457031 100.488281 93.132813 C 104.386719 92.808594 107.742188 95.027344 107.988281 98.09375 C 108.238281 101.160156 105.28125 103.90625 101.386719 104.230469 Z M 111.425781 97.875 C 111.03125 93.398438 105.742188 90.160156 99.605469 90.632813 C 93.46875 91.109375 88.808594 95.121094 89.199219 99.597656 C 89.589844 104.066406 94.878906 107.3125 101.015625 106.835938 C 107.152344 106.359375 111.8125 102.347656 111.425781 97.875 "/>
<path style=" stroke:none;fill-rule:evenodd;fill:rgb(96.09375%,7.446289%,21.166992%);fill-opacity:1;" d="M 113.894531 87.691406 L 114.011719 102.886719 L 116.933594 102.941406 L 120.378906 88.277344 L 113.894531 87.691406 "/>
<path style=" stroke:none;fill-rule:evenodd;fill:rgb(96.09375%,7.446289%,21.166992%);fill-opacity:1;" d="M 113.367188 108.261719 L 116.8125 108.261719 L 116.8125 104.753906 L 113.367188 104.753906 Z M 113.367188 108.261719 "/>
<path style=" stroke:none;fill-rule:evenodd;fill:rgb(96.09375%,7.446289%,21.166992%);fill-opacity:1;" d="M 121 108.679688 L 121.570313 108.679688 L 122.429688 110.09375 L 122.984375 110.09375 L 122.058594 108.652344 C 122.535156 108.59375 122.902344 108.339844 122.902344 107.757813 C 122.902344 107.109375 122.519531 106.828125 121.75 106.828125 L 120.503906 106.828125 L 120.503906 110.09375 L 121 110.09375 L 121 107.246094 L 121.675781 107.246094 C 122.019531 107.246094 122.386719 107.320313 122.386719 107.726563 C 122.386719 108.226563 122.011719 108.257813 121.59375 108.257813 L 121 108.257813 Z M 121.601563 111.289063 C 123.144531 111.289063 124.460938 110.09375 124.460938 108.453125 C 124.460938 106.828125 123.144531 105.628906 121.601563 105.628906 C 120.042969 105.628906 118.722656 106.828125 118.722656 108.453125 C 118.722656 110.09375 120.042969 111.289063 121.601563 111.289063 Z M 119.289063 108.453125 C 119.289063 107.109375 120.304688 106.097656 121.601563 106.097656 C 122.882813 106.097656 123.890625 107.109375 123.890625 108.453125 C 123.890625 109.8125 122.882813 110.820313 121.601563 110.820313 C 120.304688 110.820313 119.289063 109.8125 119.289063 108.453125 "/>
<path style=" stroke:none;fill-rule:nonzero;fill:rgb(30.979919%,30.979919%,30.979919%);fill-opacity:1;" d="M 129.835938 93.695313 L 131.335938 93.554688 C 131.425781 94.054688 131.605469 94.421875 131.882813 94.65625 C 132.15625 94.890625 132.527344 95.007813 132.996094 95.007813 C 133.488281 95.007813 133.863281 94.902344 134.113281 94.695313 C 134.363281 94.484375 134.488281 94.242188 134.488281 93.960938 C 134.488281 93.78125 134.4375 93.628906 134.332031 93.503906 C 134.226563 93.378906 134.042969 93.265625 133.777344 93.171875 C 133.601563 93.109375 133.1875 93 132.550781 92.839844 C 131.726563 92.632813 131.148438 92.382813 130.816406 92.085938 C 130.347656 91.664063 130.113281 91.15625 130.113281 90.550781 C 130.113281 90.164063 130.226563 89.800781 130.445313 89.464844 C 130.664063 89.128906 130.980469 88.871094 131.394531 88.695313 C 131.808594 88.519531 132.304688 88.429688 132.890625 88.429688 C 133.84375 88.429688 134.5625 88.636719 135.042969 89.054688 C 135.523438 89.472656 135.777344 90.03125 135.804688 90.726563 L 134.269531 90.789063 C 134.203125 90.398438 134.0625 90.121094 133.847656 89.949219 C 133.632813 89.78125 133.308594 89.695313 132.875 89.695313 C 132.429688 89.695313 132.078125 89.785156 131.828125 89.96875 C 131.664063 90.085938 131.585938 90.242188 131.585938 90.441406 C 131.585938 90.621094 131.660156 90.773438 131.8125 90.902344 C 132.007813 91.0625 132.476563 91.234375 133.222656 91.410156 C 133.96875 91.589844 134.519531 91.773438 134.878906 91.960938 C 135.234375 92.152344 135.515625 92.410156 135.71875 92.738281 C 135.921875 93.066406 136.019531 93.472656 136.019531 93.957031 C 136.019531 94.394531 135.898438 94.804688 135.65625 95.1875 C 135.414063 95.570313 135.074219 95.855469 134.628906 96.039063 C 134.1875 96.226563 133.636719 96.320313 132.976563 96.320313 C 132.011719 96.320313 131.273438 96.097656 130.757813 95.648438 C 130.242188 95.203125 129.933594 94.550781 129.835938 93.695313 "/>
<path style=" stroke:none;fill-rule:nonzero;fill:rgb(30.979919%,30.979919%,30.979919%);fill-opacity:1;" d="M 137.863281 96.179688 L 137.863281 88.570313 L 143.503906 88.570313 L 143.503906 89.851563 L 139.394531 89.851563 L 139.394531 91.539063 L 143.222656 91.539063 L 143.222656 92.820313 L 139.394531 92.820313 L 139.394531 94.898438 L 143.644531 94.898438 L 143.644531 96.179688 L 137.863281 96.179688 "/>
<path style=" stroke:none;fill-rule:nonzero;fill:rgb(30.979919%,30.979919%,30.979919%);fill-opacity:1;" d="M 149.515625 93.164063 L 148.464844 90.351563 L 147.441406 93.164063 Z M 152.347656 96.179688 L 150.675781 96.179688 L 150.019531 94.445313 L 146.976563 94.445313 L 146.347656 96.179688 L 144.707031 96.179688 L 147.652344 88.570313 L 149.292969 88.570313 L 152.347656 96.179688 "/>
<path style=" stroke:none;fill-rule:nonzero;fill:rgb(30.979919%,30.979919%,30.979919%);fill-opacity:1;" d="M 155.230469 91.789063 L 156.359375 91.789063 C 157.097656 91.789063 157.554688 91.757813 157.738281 91.695313 C 157.921875 91.632813 158.0625 91.523438 158.167969 91.371094 C 158.269531 91.21875 158.320313 91.027344 158.320313 90.800781 C 158.320313 90.542969 158.253906 90.335938 158.117188 90.175781 C 157.980469 90.019531 157.789063 89.921875 157.539063 89.878906 C 157.417969 89.859375 157.042969 89.851563 156.425781 89.851563 L 155.230469 89.851563 Z M 153.695313 96.179688 L 153.695313 88.570313 L 156.921875 88.570313 C 157.730469 88.570313 158.320313 88.640625 158.6875 88.777344 C 159.054688 88.910156 159.347656 89.15625 159.570313 89.503906 C 159.789063 89.855469 159.898438 90.253906 159.898438 90.703125 C 159.898438 91.277344 159.734375 91.75 159.402344 92.121094 C 159.070313 92.492188 158.574219 92.730469 157.914063 92.824219 C 158.242188 93.019531 158.515625 93.230469 158.730469 93.464844 C 158.945313 93.695313 159.234375 94.105469 159.597656 94.695313 L 160.523438 96.179688 L 158.6875 96.179688 L 157.59375 94.515625 C 157.199219 93.929688 156.929688 93.558594 156.78125 93.40625 C 156.636719 93.253906 156.480469 93.148438 156.316406 93.09375 C 156.152344 93.035156 155.894531 93.007813 155.539063 93.007813 L 155.230469 93.007813 L 155.230469 96.179688 L 153.695313 96.179688 "/>
<path style=" stroke:none;fill-rule:nonzero;fill:rgb(30.979919%,30.979919%,30.979919%);fill-opacity:1;" d="M 166.78125 93.367188 L 168.265625 93.835938 C 168.035156 94.671875 167.65625 95.289063 167.125 95.695313 C 166.59375 96.101563 165.917969 96.304688 165.101563 96.304688 C 164.089844 96.304688 163.257813 95.960938 162.605469 95.269531 C 161.949219 94.578125 161.625 93.632813 161.625 92.433594 C 161.625 91.167969 161.953125 90.183594 162.609375 89.480469 C 163.265625 88.78125 164.128906 88.429688 165.195313 88.429688 C 166.128906 88.429688 166.886719 88.703125 167.472656 89.257813 C 167.816406 89.585938 168.078125 90.054688 168.25 90.664063 L 166.734375 91.023438 C 166.644531 90.628906 166.453125 90.316406 166.167969 90.085938 C 165.878906 89.855469 165.53125 89.742188 165.117188 89.742188 C 164.550781 89.742188 164.089844 89.945313 163.734375 90.351563 C 163.382813 90.757813 163.203125 91.410156 163.203125 92.320313 C 163.203125 93.285156 163.378906 93.96875 163.726563 94.378906 C 164.074219 94.785156 164.527344 94.992188 165.085938 94.992188 C 165.496094 94.992188 165.847656 94.863281 166.144531 94.601563 C 166.441406 94.339844 166.652344 93.929688 166.78125 93.367188 "/>
<path style=" stroke:none;fill-rule:nonzero;fill:rgb(30.979919%,30.979919%,30.979919%);fill-opacity:1;" d="M 170.117188 96.179688 L 170.117188 88.570313 L 171.648438 88.570313 L 171.648438 91.570313 L 174.664063 91.570313 L 174.664063 88.570313 L 176.195313 88.570313 L 176.195313 96.179688 L 174.664063 96.179688 L 174.664063 92.851563 L 171.648438 92.851563 L 171.648438 96.179688 L 170.117188 96.179688 "/>
<path style=" stroke:none;fill-rule:nonzero;fill:rgb(30.979919%,30.979919%,30.979919%);fill-opacity:1;" d="M 130.210938 108.9375 L 130.210938 101.332031 L 132.515625 101.332031 L 133.890625 106.519531 L 135.246094 101.332031 L 137.554688 101.332031 L 137.554688 108.9375 L 136.132813 108.9375 L 136.121094 102.949219 L 134.617188 108.9375 L 133.144531 108.9375 L 131.640625 102.949219 L 131.632813 108.9375 L 130.210938 108.9375 "/>
<path style=" stroke:none;fill-rule:nonzero;fill:rgb(30.979919%,30.979919%,30.979919%);fill-opacity:1;" d="M 143.65625 105.921875 L 142.605469 103.109375 L 141.585938 105.921875 Z M 146.488281 108.9375 L 144.816406 108.9375 L 144.15625 107.207031 L 141.117188 107.207031 L 140.488281 108.9375 L 138.847656 108.9375 L 141.792969 101.332031 L 143.433594 101.332031 L 146.488281 108.9375 "/>
<path style=" stroke:none;fill-rule:nonzero;fill:rgb(30.979919%,30.979919%,30.979919%);fill-opacity:1;" d="M 149.371094 104.546875 L 150.503906 104.546875 C 151.238281 104.546875 151.695313 104.515625 151.878906 104.457031 C 152.0625 104.390625 152.203125 104.285156 152.308594 104.132813 C 152.410156 103.980469 152.464844 103.789063 152.464844 103.558594 C 152.464844 103.300781 152.394531 103.09375 152.261719 102.9375 C 152.121094 102.777344 151.929688 102.679688 151.683594 102.636719 C 151.558594 102.621094 151.1875 102.609375 150.566406 102.609375 L 149.371094 102.609375 Z M 147.839844 108.9375 L 147.839844 101.332031 L 151.0625 101.332031 C 151.871094 101.332031 152.460938 101.398438 152.828125 101.535156 C 153.195313 101.671875 153.488281 101.914063 153.710938 102.265625 C 153.933594 102.613281 154.042969 103.015625 154.042969 103.464844 C 154.042969 104.035156 153.875 104.507813 153.542969 104.882813 C 153.210938 105.253906 152.714844 105.488281 152.054688 105.585938 C 152.386719 105.777344 152.65625 105.992188 152.871094 106.222656 C 153.085938 106.453125 153.375 106.867188 153.738281 107.457031 L 154.667969 108.9375 L 152.832031 108.9375 L 151.734375 107.277344 C 151.339844 106.6875 151.070313 106.320313 150.921875 106.167969 C 150.777344 106.011719 150.621094 105.910156 150.460938 105.851563 C 150.296875 105.792969 150.035156 105.765625 149.683594 105.765625 L 149.371094 105.765625 L 149.371094 108.9375 L 147.839844 108.9375 "/>
<path style=" stroke:none;fill-rule:nonzero;fill:rgb(30.979919%,30.979919%,30.979919%);fill-opacity:1;" d="M 156.050781 108.9375 L 156.050781 101.332031 L 157.578125 101.332031 L 157.578125 104.699219 L 160.691406 101.332031 L 162.761719 101.332031 L 159.898438 104.285156 L 162.898438 108.9375 L 160.894531 108.9375 L 158.816406 105.371094 L 157.578125 106.636719 L 157.578125 108.9375 L 156.050781 108.9375 "/>
<path style=" stroke:none;fill-rule:nonzero;fill:rgb(30.979919%,30.979919%,30.979919%);fill-opacity:1;" d="M 164.257813 108.9375 L 164.257813 101.332031 L 169.898438 101.332031 L 169.898438 102.609375 L 165.789063 102.609375 L 165.789063 104.296875 L 169.617188 104.296875 L 169.617188 105.582031 L 165.789063 105.582031 L 165.789063 107.65625 L 170.039063 107.65625 L 170.039063 108.9375 L 164.257813 108.9375 "/>
<path style=" stroke:none;fill-rule:nonzero;fill:rgb(30.979919%,30.979919%,30.979919%);fill-opacity:1;" d="M 173.585938 108.9375 L 173.585938 102.609375 L 171.351563 102.609375 L 171.351563 101.332031 L 177.351563 101.332031 L 177.351563 102.609375 L 175.117188 102.609375 L 175.117188 108.9375 L 173.585938 108.9375 "/>
<path style=" stroke:none;fill-rule:nonzero;fill:rgb(30.979919%,30.979919%,30.979919%);fill-opacity:1;" d="M 178.847656 108.9375 L 180.378906 108.9375 L 180.378906 101.332031 L 178.847656 101.332031 Z M 178.847656 108.9375 "/>
<path style=" stroke:none;fill-rule:nonzero;fill:rgb(30.979919%,30.979919%,30.979919%);fill-opacity:1;" d="M 182.394531 108.9375 L 182.394531 101.332031 L 183.886719 101.332031 L 187.019531 106.4375 L 187.019531 101.332031 L 188.441406 101.332031 L 188.441406 108.9375 L 186.902344 108.9375 L 183.816406 103.9375 L 183.816406 108.9375 L 182.394531 108.9375 "/>
<path style=" stroke:none;fill-rule:nonzero;fill:rgb(30.979919%,30.979919%,30.979919%);fill-opacity:1;" d="M 194.152344 106.140625 L 194.152344 104.859375 L 197.449219 104.859375 L 197.449219 107.902344 C 197.128906 108.214844 196.660156 108.488281 196.050781 108.722656 C 195.441406 108.960938 194.820313 109.082031 194.195313 109.082031 C 193.402344 109.082031 192.710938 108.914063 192.117188 108.578125 C 191.527344 108.242188 191.082031 107.765625 190.785156 107.140625 C 190.488281 106.519531 190.339844 105.839844 190.339844 105.109375 C 190.339844 104.3125 190.503906 103.609375 190.835938 102.988281 C 191.167969 102.371094 191.65625 101.898438 192.296875 101.570313 C 192.78125 101.316406 193.390625 101.1875 194.117188 101.1875 C 195.0625 101.1875 195.800781 101.386719 196.328125 101.78125 C 196.859375 102.179688 197.203125 102.726563 197.355469 103.421875 L 195.824219 103.707031 C 195.714844 103.332031 195.515625 103.039063 195.21875 102.824219 C 194.921875 102.609375 194.554688 102.5 194.109375 102.5 C 193.441406 102.5 192.90625 102.714844 192.511719 103.144531 C 192.113281 103.570313 191.917969 104.207031 191.917969 105.042969 C 191.917969 105.953125 192.117188 106.632813 192.519531 107.085938 C 192.925781 107.539063 193.453125 107.765625 194.105469 107.765625 C 194.429688 107.765625 194.753906 107.703125 195.078125 107.578125 C 195.40625 107.449219 195.683594 107.292969 195.917969 107.113281 L 195.917969 106.140625 L 194.152344 106.140625 "/>
</g>
</svg>
