<?xml version="1.0" encoding="UTF-8" standalone="no"?>
<svg
   xmlns:dc="http://purl.org/dc/elements/1.1/"
   xmlns:cc="http://creativecommons.org/ns#"
   xmlns:rdf="http://www.w3.org/1999/02/22-rdf-syntax-ns#"
   xmlns:svg="http://www.w3.org/2000/svg"
   xmlns="http://www.w3.org/2000/svg"
   xmlns:sodipodi="http://sodipodi.sourceforge.net/DTD/sodipodi-0.dtd"
   xmlns:inkscape="http://www.inkscape.org/namespaces/inkscape"
   version="1.1"
   id="Layer_1"
   inkscape:output_extension="org.inkscape.output.svg.inkscape"
   sodipodi:version="0.32"
   inkscape:version="1.0.2 (e86c870879, 2021-01-15)"
   sodipodi:docname="Yahoo_Logo.svg"
   width="1000"
   height="189.75098"
   viewBox="130.35156 177.43359 1000 189.75098"
   overflow="visible"
   enable-background="new 130.3515625 177.4335938 800 151.6611328"
   xml:space="preserve"
   style="overflow:visible"
   inkscape:export-filename="C:\Users\tjdru\OneDrive\Pictures\Logos\Internet\yahoologo2009.png"
   inkscape:export-xdpi="134.80299"
   inkscape:export-ydpi="134.80299"><metadata
   id="metadata2296"><rdf:RDF><cc:Work
       rdf:about=""><dc:format>image/svg+xml</dc:format><dc:type
         rdf:resource="http://purl.org/dc/dcmitype/StillImage" /></cc:Work></rdf:RDF></metadata><defs
   id="defs2294" />
<sodipodi:namedview
   gridtolerance="10.0"
   bordercolor="#666666"
   inkscape:zoom="0.95878136"
   inkscape:cx="269.61512"
   inkscape:cy="68.512918"
   pagecolor="#ffffff"
   guidetolerance="10.0"
   borderopacity="1.0"
   id="base"
   objecttolerance="10.0"
   inkscape:window-x="-8"
   inkscape:window-y="-8"
   inkscape:current-layer="layer3"
   inkscape:window-width="1366"
   inkscape:pageshadow="2"
   inkscape:pageopacity="0.0"
   inkscape:window-height="705"
   showgrid="false"
   inkscape:window-maximized="1"
   inkscape:document-rotation="0">
	</sodipodi:namedview>







<g
   inkscape:groupmode="layer"
   id="layer3"
   inkscape:label="Layer 1"
   transform="translate(-13.54981,-190.42972)"><path
     id="path149"
     style="display:inline;fill:#7b0099;fill-opacity:1;fill-rule:evenodd;stroke:none;stroke-width:0.106482"
     d="m 1083.8199,367.86331 c 1.193,39.81864 2.9602,79.75474 0.9729,118.93735 l 21.177,2.05327 c 17.6904,-79.07853 22.1379,-88.65658 29.8512,-115.35521 z m -939.91853,11.47296 0.20216,11.82046 c 6.7869,1.34119 34.78178,4.50904 38.85397,5.85023 14.93116,11.39992 74.92995,86.12568 77.64474,93.50219 v 43.3522 c 0,6.70593 -5.43159,7.64803 -12.21846,9.6598 -6.78688,2.01181 -20.81876,1.97836 -28.28442,1.30774 l -1.35829,12.59753 c 12.21638,0.67061 48.88487,-0.66967 60.42263,-0.66967 23.07543,0 63.42728,-0.67058 68.8568,0 l 1.35831,-13.26721 -43.06788,-0.68862 c 0,0 -1.1778,-49.18426 -0.49911,-53.20783 4.75079,-12.74127 71.73332,-64.89298 79.19893,-66.90462 6.7869,-1.34116 26.95776,-5.67873 31.70861,-6.3493 l 8.33941,-12.33219 -115.57634,-0.99821 2.65978,13.31774 c 4.07209,0 27.88837,3.66246 35.35392,5.00365 -1.35734,10.72938 -48.71335,44.20779 -54.14284,51.58416 -9.50172,-13.41173 -39.97892,-51.47111 -58.98219,-78.96516 7.46555,-2.01178 35.29175,-2.68319 41.39997,-4.02439 l 1.78162,-10.34208 z M 972.83651,516.9685 c 57.59679,-1.76533 94.15929,-27.153 94.15929,-66.74037 0,-35.16221 -31.5423,-58.94548 -83.50131,-60.3093 -3.46391,-0.0913 -7.01585,-0.0806 -10.65798,0.0319 -58.27397,1.78608 -94.50434,26.48827 -94.16561,66.04547 0.33893,39.57555 35.89164,62.75838 94.16561,60.97232 z m -348.35266,-122.48232 -1.0361,10.44316 c 6.33662,0.69633 24.24389,3.04377 29.8765,3.7401 l -1.13087,45.83506 c -28.25531,1.04015 -58.35618,1.15437 -87.91739,1.54152 l 1.01084,-23.59036 c 0.14717,-3.4402 1.28248,-9.55871 1.28248,-9.55871 6.33663,-0.7496 25.763,-2.33757 30.69151,-2.33757 l 0.88445,-10.79698 c -19.28016,0.51081 -69.79561,0.46165 -93.37584,0.44225 l 1.23826,10.17151 c 5.19608,0.18697 30.00284,1.90797 30.00284,1.90797 0.70387,6.2669 0.71389,22.98429 0.71389,29.25104 v 17.40532 c 0,13.9263 -0.6226,27.40886 -1.3267,35.7646 -4.22441,0.69629 -22.00188,2.87455 -29.04256,2.87455 l -0.61282,12.88814 c 22.40198,-0.10967 67.56483,-0.32832 90.90563,0 l 0.41067,-12.33849 c -5.63258,-0.69633 -29.93335,-3.04516 -29.93335,-3.04516 0,0 -1.884,-6.15105 -2.09749,-15.69951 l -0.35378,-15.78798 c 10.34626,-1.64147 77.87688,-4.29758 87.78469,-4.54246 l 0.17693,36.23211 c -4.22437,0.6963 -24.50502,2.23018 -28.02541,2.23018 l 0.64441,11.76359 c 22.17897,0.0973 47.87641,0.31313 72.86224,0.39169 l 0.61283,-10.89174 c -4.92849,-0.6963 -21.07591,-2.43231 -21.07591,-2.43231 l -2.75452,-97.67826 c 5.63256,-0.69633 20.06088,-4.97836 24.28529,-4.97836 l 0.70759,-8.83217 c -14.08139,0.69636 -62.03097,0.3236 -75.40828,-0.37273 z m 347.67033,105.15209 c -26.45197,0.46327 -61.64197,-11.29223 -61.64197,-44.61573 0,-33.32335 35.18786,-46.88796 61.64197,-47.69876 1.6534,-0.0508 3.33935,-0.0536 5.04786,-0.007 25.62776,0.70887 56.28286,12.69827 56.60046,43.9276 0.3387,33.30421 -35.22237,47.93116 -61.64832,48.39391 z M 784.54323,413.56569 c -53.7061,1.3913 -82.14928,23.90988 -82.14928,58.2304 0,32.34047 31.02988,55.29652 82.14928,53.97228 51.11938,-1.32431 82.47966,-24.57581 82.80002,-58.24938 0.32654,-34.32747 -31.68064,-55.27757 -82.80002,-53.9533 z m 0,15.18149 c 22.00323,-0.57002 54.33869,8.49052 54.33869,39.51099 0,30.36043 -32.33549,41.75871 -54.33869,42.32872 -22.00318,0.56997 -54.33866,-8.4969 -54.33866,-39.51733 0,-30.36044 32.33548,-41.75238 54.33866,-42.32238 z m -376.8203,15.04248 15.08675,4.87727 c 0,0 -32.58684,64.46884 -38.87293,73.25392 -5.02885,1.35159 -15.61114,4.47951 -20.63999,5.15526 l -3.56318,12.30062 c 3.77166,-0.6758 56.38566,-0.18308 61.41451,-0.18308 l 1.16878,-12.00999 -17.42428,-3.60743 c -0.45573,-3.17476 5.9488,-16.49947 11.35297,-22.14359 5.65747,-1.35154 36.6933,-2.02799 36.6933,-2.02801 l 17.1968,36.58592 c 0,0 -17.45273,3.2031 -23.1102,3.2031 l -1.44044,11.67512 72.28735,0.4296 0.29047,-10.92963 c -4.40028,0.67579 -17.79075,-3.91089 -22.81961,-4.58667 -5.6575,-9.46087 -28.65407,-63.49479 -38.08317,-87.8226 l 16.4766,-3.94859 2.38176,-8.21303 h -25.76995 c -9.42913,0 -39.37211,0.17662 -43.14364,-0.49913 z m 28.87831,7.93504 13.63363,37.66623 h -29.92702 c 1.88585,-4.73042 16.29339,-37.66623 16.29339,-37.66623 z m 643.41546,79.73591 c 8.3362,0.45344 13.5647,1.02061 23.5335,1.79424 l 3.6011,-24.3106 c -10.0134,0.007 -17.3494,-0.81037 -27.2863,-2.34387 z m 51.8052,-22.24467 c -6.599,0 -12.0732,5.06243 -12.0732,11.9468 0,6.86806 5.474,11.99734 12.0732,11.99734 6.4581,0 12.0795,-5.11285 12.0795,-11.99734 0,-6.88437 -5.6214,-11.9468 -12.0795,-11.9468 z m 0,2.1038 c 5.3358,0 9.6134,4.27121 9.6156,9.81774 0,5.67712 -4.2801,9.97566 -9.6156,9.97566 -5.5422,0 -9.6788,-4.28209 -9.6788,-9.97566 0,-5.54653 4.1366,-9.81774 9.6788,-9.81774 z m -4.6309,2.95668 v 13.75366 h 2.028 v -5.76176 h 2.4639 l 3.5821,5.76176 h 2.325 l -3.936,-5.97654 c 2.0387,-0.32576 3.6516,-1.46757 3.6516,-3.7843 0,-2.67546 -1.6851,-3.99282 -4.9846,-3.99282 z m 2.028,1.8258 h 2.8872 c 1.4062,0 3.0199,0.32821 3.0199,2.04064 0,2.10454 -1.6825,2.18596 -3.3674,2.18596 h -2.5397 z"
     sodipodi:nodetypes="ccccccccccccccccccccccccccccccccccccccccccccccccccccccccccccccccccccccccccccccccccccccccccccccccccccccccccccccccccccccccccccccccccccccccccccccc" /></g></svg>
